<?xml version="1.0" encoding="UTF-8" standalone="no"?>
<!DOCTYPE svg PUBLIC "-//W3C//DTD SVG 1.1//EN" "http://www.w3.org/Graphics/SVG/1.1/DTD/svg11.dtd">
<svg width="100%" height="100%" viewBox="0 0 1000 1000" version="1.1" xmlns="http://www.w3.org/2000/svg" xmlns:xlink="http://www.w3.org/1999/xlink" xml:space="preserve" xmlns:serif="http://www.serif.com/" style="fill-rule:evenodd;clip-rule:evenodd;stroke-linejoin:round;stroke-miterlimit:2;">
    <g transform="matrix(1,0,0,1,-524.0005,-60.6665)">
        <path d="M1015.51,76.406C1055.72,72.445 1081.43,101.216 1110.46,124.613L1200.25,196.661C1264.92,248.061 1329.29,299.825 1393.38,351.952C1416.58,371.102 1441.22,390.142 1463.7,409.93C1472.11,417.341 1483.35,439.753 1484.11,450.955C1485.23,467.25 1484.8,489.077 1484.66,505.876L1484.31,601.404L1484.25,960.225C1484.33,986.218 1481.86,1003.47 1462.66,1023.1C1438.48,1047.8 1412.09,1044.27 1381.22,1044.16L1306.62,1044.02L1031.5,1043.97L754.907,1044.05L671.503,1044.14C645.22,1044.17 621.905,1047.62 598.607,1033.89C554.32,1007.79 563.515,957.427 563.482,914.904L563.538,730.079L563.283,538.28C563.358,515.271 562.192,475.258 563.926,453.552C564.861,442.955 568.391,432.751 574.203,423.842C588.476,402.042 648.422,357.876 671.546,339.149C722.595,297.197 773.968,255.642 825.662,214.487L926.588,133.579C945.828,118.121 965.375,101.827 985.402,87.424C993.971,81.261 1005.24,78.563 1015.51,76.406ZM1024.75,1015.03L1302.23,1014.89L1379.37,1014.9C1403,1014.91 1423.72,1019.11 1441.95,1000.87C1448.2,994.68 1452.19,986.576 1453.27,977.854C1454.83,965.274 1454.1,933.062 1454.12,919.451L1454.4,811.322C1455.21,699.126 1455.22,586.924 1454.45,474.727C1454.27,458.124 1454.94,443.817 1441.71,432.402C1426.56,419.327 1409.82,406.472 1394.17,393.988L1292.95,313.126L1127.75,180.419L1077.2,139.825C1061.01,126.705 1043.76,108.016 1022,108.349C1020.95,108.366 1019.9,108.417 1018.86,108.503C1011.34,109.956 1004.7,112.162 998.561,116.85C976.007,134.064 953.78,152.4 931.626,170.107L798.162,277.167L674.035,377.109C649.042,397.261 619.114,418.688 597.589,442.61C594.395,446.159 592.651,458.899 592.448,463.667C592.021,503.654 592.357,544.07 592.41,584.052L592.276,801.234L592.378,917.069C592.438,938.512 591.394,960.96 594.586,982.114C595.99,991.414 604.665,1001.96 612.425,1007.05C628.929,1017.88 652.44,1014.71 672.185,1014.76L755.542,1014.88L1024.75,1015.03Z" style="fill:rgb(87,166,64);fill-rule:nonzero;"/>
    </g>
    <g transform="matrix(1,0,0,1,-524.0005,-60.6665)">
        <path d="M1187.6,297.789C1188.69,297.671 1189.62,298.091 1190.75,298.412C1198.25,309.597 1214.44,388.173 1216.97,405.166C1231.31,501.459 1225.33,623.682 1186.13,711.064C1158.46,773.77 1108.7,824.109 1046.31,852.493C1025.84,861.781 1005.91,867.842 984.798,875.293C945.426,889.188 940.053,927.431 924.127,960.953C920.876,967.995 914.623,981.461 906.634,983.81C898.69,986.147 885.686,983.492 883.815,973.871C882.408,966.637 884.883,964.164 888.319,958.456C907.339,932.834 921.874,878.206 911.748,844.443C909.931,838.383 889.178,811.831 884.446,804.002C843.963,737.032 834.672,651.397 859.523,577.228C888.837,483.681 961.829,423.216 1045.63,379.054C1094.12,353.501 1144.6,331.938 1187.6,297.789ZM1041.63,484.97C1041.61,480.946 1040.12,465.691 1038.37,462.72C1031.38,469.636 1034.37,498.25 1037.1,507.304C1040.16,519.232 1043.5,532.176 1045.83,544.214C1025.03,574.878 1001.84,603.537 986.965,638.011C978.714,609.129 963.642,583.281 959.129,555.629L958.964,554.874C957.403,547.539 957.27,536.401 954.93,530.298L953.76,530.187C941.788,551.413 957.532,600.682 965.386,622.261C970.274,638.786 971.949,647.504 972.844,664.873C960.558,687.804 956.696,707.4 947.957,731.411C931.298,708.636 916.686,686.921 908.048,660.034C907.759,655.949 905.924,647.092 903.043,644.201C900.326,648.333 902.623,668.537 903.769,674.013C904.143,675.77 904.599,677.509 905.135,679.224C913.663,709.685 931.026,729.698 942.076,761.078C939.373,770.972 938.625,783.538 937.269,793.816C932.576,829.385 933.969,865.3 931.622,900.781C944.623,873.669 956.937,838.665 984.682,822.12C1004.32,808.427 1021.22,803.765 1041.91,792.801C1052.54,787.168 1061.8,778.922 1070.73,770.953C1068.51,771.71 1065.51,773.1 1063.33,774.121C1043.98,783.175 1023.51,789.179 1003.78,797.232C981.028,804.56 971.478,815.764 953.407,829.653C958.789,809.026 959.981,766.189 968.214,751.736C988.168,716.711 1040.69,698.998 1075.5,687.764C1104.05,677.577 1129.83,661.925 1146.34,635.799C1118.94,656.647 1102.85,662.218 1071.23,672.81C1026.72,685.086 1014.31,688.985 977.092,716.857C983.212,685.918 1015.17,624.222 1031.35,596.936C1040.55,591.385 1050.49,585.63 1060.41,581.562C1102.42,564.325 1125.35,564.589 1154.62,528.148C1157.41,525.787 1160.33,519.799 1162.25,516.364C1156.31,520.683 1152.6,523.865 1147.13,528.769C1113.62,552.201 1088.8,556.91 1049.67,569.298C1078.82,530.18 1118.77,465.102 1136.67,419.654C1138.59,414.517 1142.4,405.597 1142.36,400.427L1141.43,400.08C1138.08,403.359 1134.37,410.711 1131.94,415.046C1114.45,444.466 1097.84,473.097 1077.64,500.785C1071.07,509.798 1063.69,521.944 1055.82,529.565C1050.23,514.263 1046.56,500.261 1041.63,484.97Z" style="fill:rgb(87,166,64);fill-rule:nonzero;"/>
    </g>
    <g transform="matrix(1,0,0,1,-524.0005,-60.6665)">
        <path d="M1146.34,635.799C1129.83,661.925 1104.05,677.577 1075.5,687.764C1072.18,686.871 1070.14,686.307 1068.73,683.091C1071.57,682.777 1072.49,682.914 1074.8,681.401L1074.84,679.28C1069.98,677.101 1071.37,680.306 1068.42,678.478C1069.84,676.188 1070.24,675.32 1071.23,672.81C1102.85,662.218 1118.94,656.647 1146.34,635.799Z" style="fill:rgb(246,252,243);fill-opacity:0.02;fill-rule:nonzero;"/>
    </g>
    <g transform="matrix(1,0,0,1,-524.0005,-60.6665)">
        <path d="M1003.78,797.232C1023.51,789.179 1043.98,783.175 1063.33,774.121C1065.51,773.1 1068.51,771.71 1070.73,770.953C1061.8,778.922 1052.54,787.168 1041.91,792.801C1021.22,803.765 1004.32,808.427 984.682,822.12C984.075,811.159 996.905,812.084 1000.32,806.907L998.492,805.005L998.531,803.624C1003.44,802.672 1008.29,801.943 1012.89,799.974L1013.22,798.707C1010.3,797.028 1007.14,797.289 1003.78,797.232Z" style="fill:rgb(246,252,243);fill-opacity:0.02;fill-rule:nonzero;"/>
    </g>
    <g transform="matrix(1,0,0,1,-524.0005,-60.6665)">
        <path d="M965.386,622.261C957.532,600.682 941.788,551.413 953.76,530.187L954.93,530.298C957.27,536.401 957.403,547.539 958.964,554.874L959.129,555.629C959.181,560.461 959.848,567.351 957.677,571.387L957.774,570.781C957.84,570.185 957.907,569.588 957.973,568.992C951.512,583.148 968.349,607.052 968.649,620.701L965.386,622.261Z" style="fill:rgb(82,86,82);fill-opacity:0.01;fill-rule:nonzero;"/>
    </g>
    <g transform="matrix(1,0,0,1,-524.0005,-60.6665)">
        <path d="M1037.1,507.304C1034.37,498.25 1031.38,469.636 1038.37,462.72C1040.12,465.691 1041.61,480.946 1041.63,484.97C1039.85,480.24 1039.27,478.464 1038.35,473.522C1037.61,475.398 1037.28,476.168 1036.28,477.918C1036.13,487.554 1038.16,498.377 1037.1,507.304Z" style="fill:rgb(246,252,243);fill-opacity:0.09;fill-rule:nonzero;"/>
    </g>
    <g transform="matrix(1,0,0,1,-524.0005,-60.6665)">
        <path d="M905.135,679.224C904.599,677.509 904.143,675.77 903.769,674.013C902.623,668.537 900.326,648.333 903.043,644.201C905.924,647.092 907.759,655.949 908.048,660.034C902.784,662.475 905.804,672.846 905.135,679.224Z" style="fill:rgb(246,252,243);fill-opacity:0.07;fill-rule:nonzero;"/>
    </g>
    <g transform="matrix(1,0,0,1,-524.0005,-60.6665)">
        <path d="M1131.94,415.046C1134.37,410.711 1138.08,403.359 1141.43,400.08L1142.36,400.427C1142.4,405.597 1138.59,414.517 1136.67,419.654C1136.18,418.167 1135.6,417.074 1134.91,415.683L1131.94,415.046Z" style="fill:rgb(246,252,243);fill-opacity:0.09;fill-rule:nonzero;"/>
    </g>
    <g transform="matrix(1,0,0,1,-524.0005,-60.6665)">
        <path d="M1147.13,528.769C1152.6,523.865 1156.31,520.683 1162.25,516.364C1160.33,519.799 1157.41,525.787 1154.62,528.148C1153.79,526.842 1154.2,527.292 1152.77,526.519L1147.13,528.769Z" style="fill:rgb(246,252,243);fill-opacity:0.18;fill-rule:nonzero;"/>
    </g>
    <g transform="matrix(1,0,0,1,-524.0005,-60.6665)">
        <path d="M1349.79,533.029C1351.44,533.002 1354.25,532.833 1355.77,533.084C1366.49,534.86 1375.31,553.184 1380.29,560.753C1432.52,640.078 1431.9,741.899 1379.18,820.814C1373.8,828.869 1367.72,837.901 1360.26,844.155C1344.8,846.853 1338.93,834.936 1345.56,825.034C1371.25,787.728 1389.49,751.184 1392.52,705.525C1396.5,645.544 1376.7,598.477 1342.6,550.79C1338.64,545.244 1344.83,536.802 1349.79,533.029Z" style="fill:rgb(87,166,64);fill-rule:nonzero;"/>
    </g>
    <g transform="matrix(1,0,0,1,-524.0005,-60.6665)">
        <path d="M687.75,534.08C701.675,531.915 710.153,540.209 703.261,552.629C695.396,566.802 685.866,579.227 677.802,593.752C642.178,657.923 645.385,740.305 685.59,801.665C691.091,810.538 698.111,818.989 702.842,828.293C706.65,835.783 701.08,840.496 695.944,844.344C686.967,845.714 682.995,843.514 677.37,836.312C640.171,788.685 622.302,726.014 628.805,665.972C633.094,626.374 646.58,589.796 669.132,557.027C674.047,549.815 680.987,539.466 687.75,534.08Z" style="fill:rgb(87,166,64);fill-rule:nonzero;"/>
    </g>
    <g transform="matrix(1,0,0,1,-524.0005,-60.6665)">
        <path d="M735.646,586.058C742.306,585.64 747.601,585.858 752.282,591.514C754.354,593.301 755.044,601.629 753.237,603.879C736.208,625.076 725.021,646.857 720.59,674.383C716.238,701.418 724.491,734.229 738.454,757.892C743.016,765.623 754.291,774.935 753.452,784.328C752.872,788.64 748.693,791.972 745.141,794.182C732.563,798.74 724.736,786.12 718.946,776.644C682.78,717.451 686.011,636.73 735.646,586.058Z" style="fill:rgb(87,166,64);fill-rule:nonzero;"/>
    </g>
    <g transform="matrix(1,0,0,1,-524.0005,-60.6665)">
        <path d="M1301.91,585.198C1320.39,583.911 1328.09,605.991 1335.95,620.486C1355.43,656.399 1356.95,701.181 1343.75,739.407C1338.71,753.989 1323.95,788.208 1310.06,795.128C1304.66,795.277 1299.45,794.844 1296.04,790.04C1289.36,780.605 1302.26,766.426 1307.07,758.968C1317.95,741.92 1324.44,722.441 1325.95,702.274C1328.04,676.372 1322.87,647.1 1309.31,624.592C1305.36,618.048 1298.42,610.706 1294.93,604.12C1293.51,601.496 1293.01,598.471 1293.51,595.529C1294.37,590.62 1298.08,587.755 1301.91,585.198Z" style="fill:rgb(87,166,64);fill-rule:nonzero;"/>
    </g>
    <g transform="matrix(1,0,0,1,-524.0005,-60.6665)">
        <path d="M780.776,632.038C812.163,630.084 793.739,655.185 786.738,668.644C777.888,687.816 782.696,706.354 793.568,723.3C799.676,732.819 800.885,740.336 791.448,747.263C777.131,749.994 772.125,738.537 766.657,727.511C752.932,699.83 755.948,653.244 780.776,632.038Z" style="fill:rgb(87,166,64);fill-rule:nonzero;"/>
    </g>
    <g transform="matrix(1,0,0,1,-524.0005,-60.6665)">
        <path d="M1254.83,632.308C1264.58,630.949 1268.21,633.278 1274.39,641.362C1293.54,666.427 1292.19,727.777 1264.98,747.084C1259.52,747.615 1254.7,747.258 1250.98,742.667C1242.62,732.01 1256.16,719.785 1260.39,710.368C1264.22,701.843 1265.09,687.44 1263.47,678.234C1262.15,671.174 1258.36,665.416 1255.06,659.288C1249.28,648.535 1242.57,641.1 1254.83,632.308Z" style="fill:rgb(87,166,64);fill-rule:nonzero;"/>
    </g>
</svg>
